<svg xmlns="http://www.w3.org/2000/svg" width="30" height="30.02" viewBox="0 0 30 30.02">
  <path id="info_1_" data-name="info (1)" d="M30.851,9.6A15.027,15.027,0,0,0,9.6,30.851a15.045,15.045,0,0,0,21.252,0,15.093,15.093,0,0,0,0-21.252ZM29.732,29.732a13.343,13.343,0,1,1,.08-18.935A13.454,13.454,0,0,1,29.732,29.732ZM20.7,18.148a1.013,1.013,0,0,1,.32.719v7.67a.779.779,0,0,1-.32.719,1.115,1.115,0,0,1-.719.24,1.289,1.289,0,0,1-.719-.24,1.013,1.013,0,0,1-.32-.719v-7.67a.779.779,0,0,1,.32-.719,1.115,1.115,0,0,1,.719-.24.977.977,0,0,1,.719.24Zm.24-4.314a1.026,1.026,0,0,1,.32.8.926.926,0,0,1-.32.8,1.091,1.091,0,0,1-.879.32,1.091,1.091,0,0,1-.879-.32,1.026,1.026,0,0,1-.32-.8.926.926,0,0,1,.32-.8,1.368,1.368,0,0,1,1.758,0Z" transform="translate(-5.225 -5.225)" fill="#717171"/>
</svg>
