<svg xmlns="http://www.w3.org/2000/svg" width="19.514" height="19.5" viewBox="0 0 19.514 19.5">
  <g id="question" transform="translate(0.247 0.25)">
    <g id="Group_5468" data-name="Group 5468" transform="translate(0.003 0)">
      <g id="Group_5467" data-name="Group 5467" transform="translate(0 0)">
        <path id="Path_7636" data-name="Path 7636" d="M18.928,17.206l-1.3-3.8a9.282,9.282,0,1,0-8.33,5.172h.015a9.32,9.32,0,0,0,4.1-.961l3.8,1.3a1.363,1.363,0,0,0,.444.075,1.355,1.355,0,0,0,1.276-1.794Zm-1.119.6a.218.218,0,0,1-.234.054l-4.022-1.382a.563.563,0,0,0-.446.035A8.161,8.161,0,1,1,16.515,13.1a.563.563,0,0,0-.035.446l1.382,4.022A.217.217,0,0,1,17.808,17.805Z" transform="translate(-0.003 0)" fill="#94989c" stroke="#fff" stroke-width="0.5"/>
      </g>
    </g>
    <g id="Group_5470" data-name="Group 5470" transform="translate(8.554 13.329)">
      <g id="Group_5469" data-name="Group 5469">
        <path id="Path_7637" data-name="Path 7637" d="M233.371,362.748a.651.651,0,1,0,.651.651A.658.658,0,0,0,233.371,362.748Z" transform="translate(-232.719 -362.748)" fill="#94989c" stroke="#fff" stroke-width="0.5"/>
      </g>
    </g>
    <g id="Group_5472" data-name="Group 5472" transform="translate(5.983 4.212)">
      <g id="Group_5471" data-name="Group 5471">
        <path id="Path_7638" data-name="Path 7638" d="M175.634,127.674a3.242,3.242,0,0,0-3.239,3.239.651.651,0,0,0,1.3,0,1.937,1.937,0,1,1,1.937,1.937.651.651,0,0,0-.651.651v2.655a.651.651,0,1,0,1.3,0v-2.07a3.239,3.239,0,0,0-.651-6.412Z" transform="translate(-172.395 -127.674)" fill="#94989c" stroke="#fff" stroke-width="0.5"/>
      </g>
    </g>
  </g>
</svg>
