<svg xmlns="http://www.w3.org/2000/svg" width="23.655" height="21.654" viewBox="0 0 23.655 21.654">
  <g id="Layer_x0020_1" transform="translate(0.1 -22.9)">
    <path id="Path_7866" data-name="Path 7866" d="M0,24.65A1.654,1.654,0,0,1,1.7,23h11.64c.092,0,.137,0,.183.092l3.941,3.9a.238.238,0,0,1,.092.183v4.262a4.881,4.881,0,0,1,.6,4.766l.229.229a1.191,1.191,0,0,1,0,1.741l-.367.367.321.321.321-.321a.682.682,0,0,1,1.008.046L23.1,41.973a1.5,1.5,0,0,1-.046,1.971,1.439,1.439,0,0,1-2.016,0l-3.483-3.483v2.246a1.654,1.654,0,0,1-1.7,1.65H1.7A1.654,1.654,0,0,1,0,42.706ZM12.19,35.282l-.5-.871a.267.267,0,1,1,.458-.275l.367.642L14.894,33.4a.267.267,0,1,1,.275.458l-2.612,1.512A.248.248,0,0,1,12.19,35.282Zm6.37,4.079-.55.55a.292.292,0,0,0,0,.275L21.4,43.577a.976.976,0,0,0,1.283,0,.916.916,0,0,0,0-1.237l-3.391-3.391c-.092-.092-.183-.046-.275,0Zm-.642-.137-.275-.321-.092.046v.642Zm-.825-1.375a5.782,5.782,0,0,1-1.192.962c.275.275.642.412.962.046l1.146-1.1a.612.612,0,0,0,0-.917l-.092-.092A4.309,4.309,0,0,1,17.094,37.848ZM10.311,31.2a4.481,4.481,0,0,0,0,6.324,4.541,4.541,0,0,0,4.17,1.237A4.684,4.684,0,0,0,17.6,36.153a4.4,4.4,0,0,0-.687-4.629A4.467,4.467,0,0,0,10.311,31.2Zm5.82.55a3.628,3.628,0,0,1,0,5.27,3.749,3.749,0,1,1,0-5.27Zm-4.949.367a3.2,3.2,0,0,0,0,4.537,3.237,3.237,0,1,0,0-4.537ZM17,30.791V27.445H14.574a1.526,1.526,0,0,1-1.512-1.512V23.55H1.7A1.1,1.1,0,0,0,.55,24.65V42.706a1.125,1.125,0,0,0,1.146,1.1H15.857A1.125,1.125,0,0,0,17,42.706V39.452a1.123,1.123,0,0,1-1.421-.183l-.229-.229A5.034,5.034,0,1,1,17,30.791ZM13.428,42.019H4.079a.275.275,0,0,1,0-.55h9.349A.275.275,0,0,1,13.428,42.019ZM9.945,39.59H2.612a.275.275,0,0,1,0-.55H9.945A.275.275,0,0,1,9.945,39.59ZM7.47,37.115H2.612a.275.275,0,1,1,0-.55H7.47A.275.275,0,1,1,7.47,37.115Zm0-2.429H2.612a.275.275,0,0,1,0-.55H7.47A.275.275,0,0,1,7.47,34.686Zm0-2.429H2.612a.275.275,0,0,1,0-.55H7.47A.275.275,0,0,1,7.47,32.257Zm1.558-2.475H3.483a.275.275,0,1,1,0-.55H9.028A.275.275,0,1,1,9.028,29.783Zm4.583-5.866v2.016a.94.94,0,0,0,.962.962H16.59Z" fill="#717171" stroke="#717171" stroke-width="0.2" fill-rule="evenodd"/>
  </g>
</svg>
