<svg xmlns="http://www.w3.org/2000/svg" width="14.123" height="19.2" viewBox="0 0 14.123 19.2">
  <g id="Outline" transform="translate(-80.4 -16.4)">
    <path id="Path_7652" data-name="Path 7652" d="M89.6,24.882a8.9,8.9,0,0,0,2.811-2.813,7.012,7.012,0,0,0,1.05-3.388h.027a.933.933,0,0,0,.932-.932V16.8a.3.3,0,0,0-.3-.3H80.8a.3.3,0,0,0-.3.3v.952a.933.933,0,0,0,.932.932h.027a7.011,7.011,0,0,0,1.05,3.388,8.9,8.9,0,0,0,2.811,2.813,1.327,1.327,0,0,1,0,2.235,8.9,8.9,0,0,0-2.811,2.813,7.01,7.01,0,0,0-1.05,3.388.973.973,0,0,0-.959.972V35.2a.3.3,0,0,0,.3.3H94.125a.3.3,0,0,0,.3-.3v-.952a.933.933,0,0,0-.932-.932h-.027a7.011,7.011,0,0,0-1.05-3.388A8.9,8.9,0,0,0,89.6,27.118a1.327,1.327,0,0,1,0-2.235Zm-8.508-7.133v-.654H93.828v.654a.338.338,0,0,1-.337.337H81.432A.338.338,0,0,1,81.095,17.749Zm12.733,16.5v.654H81.095V34.29a.377.377,0,0,1,.377-.377H93.491A.338.338,0,0,1,93.828,34.251Zm-10.32-.932a5.041,5.041,0,0,1,2.744-1.63A2.746,2.746,0,0,0,87.461,31a2.746,2.746,0,0,0,1.209.688,5.041,5.041,0,0,1,2.745,1.63ZM88.4,26a1.913,1.913,0,0,0,.886,1.619,7.245,7.245,0,0,1,3.585,5.7H92.08c-.356-.881-1.49-1.656-3.233-2.2a1.621,1.621,0,0,1-1.1-.77.3.3,0,0,0-.565,0,1.621,1.621,0,0,1-1.1.77c-1.743.542-2.877,1.317-3.233,2.2h-.788a7.246,7.246,0,0,1,3.586-5.7,1.922,1.922,0,0,0,0-3.238,7.245,7.245,0,0,1-3.586-5.7H92.868a7.245,7.245,0,0,1-3.585,5.7A1.913,1.913,0,0,0,88.4,26Z" transform="translate(0 0)" fill="#94989c" stroke="#fdffff" stroke-width="0.2"/>
    <path id="Path_7653" data-name="Path 7653" d="M159.873,120.666a.26.26,0,0,0-.227-.166h-6.782a.26.26,0,0,0-.227.166.434.434,0,0,0-.008.338,8.088,8.088,0,0,0,2.326,3.181,3.156,3.156,0,0,1,1.038,2.048.263.263,0,1,0,.524,0,3.156,3.156,0,0,1,1.038-2.048A8.088,8.088,0,0,0,159.881,121,.434.434,0,0,0,159.873,120.666Zm-2.6,2.939a3.535,3.535,0,0,0-1.014,1.461,3.534,3.534,0,0,0-1.014-1.461,7.453,7.453,0,0,1-1.916-2.417h5.859A7.453,7.453,0,0,1,157.269,123.6Z" transform="translate(-68.794 -100.118)" fill="#94989c" stroke="#fdffff" stroke-width="0.2"/>
    <path id="Path_7654" data-name="Path 7654" d="M248.844,264.5a.344.344,0,0,0-.344.344v.366a.344.344,0,0,0,.688,0v-.366A.344.344,0,0,0,248.844,264.5Z" transform="translate(-161.382 -238.24)" fill="#94989c" stroke="#fdffff" stroke-width="0.2"/>
    <path id="Path_7655" data-name="Path 7655" d="M248.844,304.5a.344.344,0,0,0-.344.344v.366a.344.344,0,0,0,.688,0v-.366A.344.344,0,0,0,248.844,304.5Z" transform="translate(-161.382 -276.666)" fill="#94989c" stroke="#fdffff" stroke-width="0.2"/>
  </g>
</svg>
